<svg xmlns="http://www.w3.org/2000/svg" fill="none" viewBox="0 0 443 131" id="androidPlayStore"><path fill="#000" d="M426 131H16.4c-9 0-16.4-7.4-16.4-16.4V16.4C0 7.4 7.4 0 16.4 0H426c9 0 16.4 7.4 16.4 16.4v98.2c0 9-7.4 16.4-16.4 16.4Z"/><path fill="#A6A6A6" d="M426 2.6c7.6 0 13.8 6.2 13.8 13.8v98.2c0 7.6-6.2 13.8-13.8 13.8H16.4c-7.6 0-13.8-6.2-13.8-13.8V16.4c0-7.6 6.2-13.8 13.8-13.8H426Zm0-2.6H16.4C7.4 0 0 7.4 0 16.4v98.2c0 9 7.4 16.4 16.4 16.4H426c9 0 16.4-7.4 16.4-16.4V16.4C442.4 7.4 435 0 426 0Z"/><path fill="#fff" d="M223.3 71.2c-7.7 0-14 5.9-14 14 0 8 6.3 13.9 14 13.9s14-6 14-14-6.3-13.9-14-13.9Zm0 22.4c-4.2 0-7.9-3.5-7.9-8.4 0-5 3.7-8.5 7.9-8.5s7.9 3.4 7.9 8.5c0 5-3.7 8.4-8 8.4Zm-30.5-22.4c-7.8 0-14 5.9-14 14 0 8 6.3 13.9 14 13.9s14-6 14-14-6.3-13.9-14-13.9Zm0 22.4c-4.3 0-8-3.5-8-8.4 0-5 3.7-8.5 8-8.5 4.2 0 7.8 3.4 7.8 8.5 0 5-3.6 8.4-7.8 8.4Zm-36.4-18v5.8h14.2c-.4 3.3-1.5 5.8-3.2 7.5-2 2-5.3 4.3-11 4.3-8.6 0-15.5-7-15.5-15.7A15.5 15.5 0 0 1 167.1 66l4.2-4.2a22 22 0 0 0-36.8 15.7 22 22 0 0 0 22 21.6c6.4 0 11.2-2 15-6 4-4 5.2-9.4 5.2-13.8 0-1.4-.1-2.7-.4-3.7h-19.9ZM305 80c-1.1-3.1-4.7-8.9-11.9-8.9s-13.1 5.7-13.1 14c0 7.7 5.9 13.9 13.8 13.9 6.4 0 10-4 11.6-6.2l-4.8-3.2a8 8 0 0 1-6.8 3.9 7 7 0 0 1-6.8-4.2l18.7-7.7-.7-1.6Zm-19 4.7a7.6 7.6 0 0 1 7.3-8.2c2.4 0 4.5 1.2 5.2 3l-12.5 5.2Zm-15.1 13.5h6.1v-41h-6.1v41Zm-10-24h-.3a9.6 9.6 0 0 0-7.3-3c-7 0-13.4 6-13.4 14 0 7.7 6.4 13.8 13.4 13.8 3.3 0 6-1.5 7.3-3.2h.2v2c0 5.4-2.8 8.2-7.4 8.2-3.8 0-6-2.7-7-5l-5.4 2.3c1.6 3.7 5.6 8.2 12.4 8.2 7.2 0 13.2-4.2 13.2-14.5v-25h-5.8v2.2Zm-7.1 19.3c-4.2 0-7.8-3.5-7.8-8.4s3.6-8.5 7.8-8.5c4.2 0 7.4 3.6 7.4 8.5s-3.2 8.4-7.4 8.4Zm80-36.3H319v41h6.1V82.7h8.6c6.7 0 13.4-4.9 13.4-12.7 0-7.8-6.7-12.7-13.5-12.7Zm0 19.7h-8.6V63h8.7c4.5 0 7.1 3.8 7.1 7s-2.6 7-7.1 7Zm37.9-5.8c-4.4 0-9 2-11 6.2l5.5 2.3c1.2-2.3 3.3-3 5.6-3 3.1 0 6.4 1.9 6.4 5.2v.5c-1.1-.7-3.5-1.6-6.4-1.6-5.9 0-11.8 3.2-11.8 9.2 0 5.5 4.8 9 10.2 9 4 0 6.4-1.8 7.8-4h.2v3.2h5.9V82.5c0-7.3-5.4-11.3-12.4-11.3Zm-.8 22.4c-2 0-4.8-1-4.8-3.5 0-3.1 3.5-4.3 6.5-4.3 2.7 0 4 .6 5.6 1.3a7.4 7.4 0 0 1-7.3 6.5Zm34.7-21.5-7 17.7h-.2L391 72h-6.6l11 24.9-6.3 13.8h6.4L412.3 72h-6.8Zm-55 26.2h6v-41h-6v41Z"/><path fill="url(#a)" d="M34.2 24.7c-1 1-1.5 2.6-1.5 4.6v72.4c0 2 .6 3.6 1.5 4.6l.2.2L75 66v-1L34.4 24.5l-.2.2Z"/><path fill="url(#b)" d="M88.6 79.5 75 66v-1l13.6-13.5.3.1 16 9.2c4.6 2.5 4.6 6.8 0 9.4l-16 9.1-.3.2Z"/><path fill="url(#c)" d="M88.9 79.3 75 65.5l-40.8 40.8c1.5 1.6 4 1.8 6.8.2L89 79.3Z"/><path fill="url(#d)" d="M88.9 51.7 41 24.5c-2.8-1.6-5.3-1.4-6.8.2L75 65.5 89 51.7Z"/><path fill="#000" d="M88.6 79 41 106c-2.7 1.6-5 1.5-6.6 0l-.2.3.2.2c1.6 1.4 4 1.5 6.6 0l47.9-27.2-.3-.3Z" opacity=".2"/><path fill="#000" d="M34.2 105.8c-1-1-1.5-2.5-1.5-4.5v.5c0 2 .6 3.6 1.5 4.5l.2-.2-.2-.3ZM104.9 69.8 88.5 79l.3.3 16-9c2.4-1.4 3.5-3.1 3.5-4.8-.2 1.5-1.3 3-3.4 4.3Z" opacity=".1"/><path fill="#fff" d="m41 25 63.9 36.2c2 1.2 3.2 2.7 3.4 4.3 0-1.7-1.1-3.4-3.4-4.7L41 24.5c-4.6-2.6-8.3-.4-8.3 4.8v.5c0-5.3 3.7-7.4 8.3-4.8Z" opacity=".3"/><path fill="#fff" stroke="#fff" stroke-miterlimit="10" stroke-width=".2" d="M135.3 42.6V22.9h6c3 0 5.4 1 7.2 2.7a9.7 9.7 0 0 1 2.7 7.1c0 3-.9 5.3-2.7 7.2a9.8 9.8 0 0 1-7.2 2.7h-6Zm2.5-2.4h3.5c2.2 0 4-.7 5.4-2 1.3-1.3 2-3.1 2-5.5 0-2.3-.7-4.1-2-5.4a7.4 7.4 0 0 0-5.4-2h-3.5v14.9ZM154.8 42.6V22.9h2.5v19.7h-2.5ZM167.4 43c-1.5 0-2.9-.5-4.2-1.4a6.5 6.5 0 0 1-2.7-4l2.3-.9c.2 1.1.8 2 1.6 2.8.9.7 1.8 1 3 1 1 0 2-.2 2.7-.8.8-.6 1.2-1.3 1.2-2.3 0-1.1-.4-2-1.2-2.6-.7-.5-2-1.1-3.7-1.6a10 10 0 0 1-4-2.2 4.9 4.9 0 0 1 .3-7c1.2-1 2.7-1.5 4.5-1.5 1.6 0 3 .4 4 1.2 1 .8 1.8 1.7 2 2.7l-2.2 1a3.9 3.9 0 0 0-3.7-2.5c-1 0-1.9.2-2.6.8-.7.5-1 1.2-1 2 0 .7.3 1.3 1 1.9.6.5 1.5 1 2.8 1.3 1 .3 1.7.6 2.4 1 .6.2 1.3.6 2 1.1.6.5 1.1 1 1.5 1.8a6 6 0 0 1-.1 5c-.4.8-1 1.4-1.6 1.9l-2 1-2.3.3ZM180 42.6h-2.5V22.9h6.7c1.7 0 3.1.6 4.4 1.7a5.4 5.4 0 0 1 1.8 4.2c0 1.7-.6 3-1.8 4.2a6.2 6.2 0 0 1-4.4 1.6h-4.1v8Zm0-10.4h4.3c1 0 1.9-.4 2.6-1a3.4 3.4 0 0 0 0-4.8c-.7-.7-1.6-1-2.6-1h-4.2v6.8ZM209.7 40c-2 2-4.4 3-7.2 3a10 10 0 0 1-10-10.3 10 10 0 0 1 10-10.2 10 10 0 0 1 10.1 10.3c0 2.8-1 5.3-3 7.2ZM197 38.4a7.2 7.2 0 0 0 5.4 2.2c2 0 3.8-.7 5.3-2.2a7.7 7.7 0 0 0 2.2-5.6c0-2.3-.7-4.2-2.2-5.7a7.2 7.2 0 0 0-5.3-2.2c-2.1 0-4 .7-5.4 2.2a7.7 7.7 0 0 0-2.2 5.6c0 2.3.8 4.2 2.2 5.7ZM216.1 42.6V22.9h3.1l9.6 15.3V23h2.5v19.7h-2.6l-10-16h-.1v16h-2.5ZM235.8 42.6V22.9h2.5v19.7h-2.5ZM242.8 42.6V22.9h7.1c1.5 0 2.9.5 4 1.5a5 5 0 0 1 1.7 3.9c0 1-.2 1.7-.7 2.4-.5.7-1.1 1.3-2 1.6v.1a4.8 4.8 0 0 1 3.4 4.5c0 1.6-.6 3-1.8 4a6 6 0 0 1-4.2 1.7h-7.5Zm2.5-11.3h4.6a3 3 0 0 0 2.3-1 2.9 2.9 0 0 0 0-4c-.6-.7-1.3-1-2.2-1h-4.7v6Zm0 8.9h5.1a3 3 0 0 0 2.4-1c.5-.8.9-1.5.9-2.3a3 3 0 0 0-1-2.2c-.6-.6-1.4-1-2.4-1h-5v6.5ZM259.7 42.6V22.9h2.5v17.3h8.5v2.4h-11ZM285.4 25.3h-9v6.3h8v2.3h-8v6.3h9v2.4h-11.5V22.9h11.5v2.4ZM300.6 43c-1.4 0-2.8-.5-4.2-1.4a6.5 6.5 0 0 1-2.6-4l2.2-.9c.3 1.1.9 2 1.7 2.8.9.7 1.8 1 2.9 1 1 0 2-.2 2.8-.8.8-.6 1.2-1.3 1.2-2.3 0-1.1-.4-2-1.2-2.6-.8-.5-2-1.1-3.7-1.6a10 10 0 0 1-4-2.2 4.9 4.9 0 0 1 .3-7c1.2-1 2.7-1.5 4.4-1.5 1.7 0 3 .4 4.1 1.2 1 .8 1.7 1.7 2 2.7l-2.3 1c-.1-.6-.5-1.2-1.2-1.8-.6-.5-1.5-.7-2.5-.7s-1.8.2-2.5.8c-.7.5-1 1.2-1 2 0 .7.3 1.3 1 1.9.6.5 1.5 1 2.7 1.3 1 .3 1.8.6 2.5 1 .6.2 1.3.6 2 1.1.6.5 1.1 1 1.4 1.8a6 6 0 0 1 0 5c-.4.8-1 1.4-1.6 1.9l-2.1 1c-.7.2-1.5.3-2.3.3ZM317.7 43a7 7 0 0 1-5.3-2.1 7.9 7.9 0 0 1-2-5.6V22.9h2.5v12.5c0 1.5.4 2.8 1.2 3.7.8 1 2 1.5 3.5 1.5 1.6 0 2.8-.5 3.6-1.5.8-1 1.2-2.2 1.2-3.7V22.9h2.5v12.4c0 2.3-.6 4.2-2 5.6a6.7 6.7 0 0 1-5.2 2.1ZM329 42.6V22.9h6.7c1.7 0 3.1.6 4.3 1.7a5.4 5.4 0 0 1 1.9 4.2c0 1.4-.5 2.6-1.4 3.6-.9 1-2 1.7-3.3 2l5.4 8v.2h-3l-5.3-8h-2.8v8H329Zm2.5-10.3h4.1c1 0 1.9-.4 2.6-1 .7-.7 1-1.5 1-2.5 0-.9-.3-1.7-.9-2.4-.6-.7-1.5-1-2.5-1h-4.3v6.9Z"/><defs><linearGradient id="a" x1="71.4" x2="16.5" y1="28.5" y2="83.5" gradientUnits="userSpaceOnUse"><stop stop-color="#00A0FF"/><stop offset="0" stop-color="#00A1FF"/><stop offset=".3" stop-color="#00BEFF"/><stop offset=".5" stop-color="#00D2FF"/><stop offset=".8" stop-color="#00DFFF"/><stop offset="1" stop-color="#00E3FF"/></linearGradient><linearGradient id="b" x1="110.9" x2="31.6" y1="65.5" y2="65.5" gradientUnits="userSpaceOnUse"><stop stop-color="#FFE000"/><stop offset=".4" stop-color="#FFBD00"/><stop offset=".8" stop-color="orange"/><stop offset="1" stop-color="#FF9C00"/></linearGradient><linearGradient id="c" x1="81.4" x2="6.8" y1="73" y2="147.6" gradientUnits="userSpaceOnUse"><stop stop-color="#FF3A44"/><stop offset="1" stop-color="#C31162"/></linearGradient><linearGradient id="d" x1="23.9" x2="57.2" y1=".6" y2="33.9" gradientUnits="userSpaceOnUse"><stop stop-color="#32A071"/><stop offset=".1" stop-color="#2DA771"/><stop offset=".5" stop-color="#15CF74"/><stop offset=".8" stop-color="#06E775"/><stop offset="1" stop-color="#00F076"/></linearGradient></defs></svg>
