<svg xmlns="http://www.w3.org/2000/svg" fill="none" viewBox="0 0 415 131" id="iOSAppStore"><path fill="#A6A6A6" d="M383.3 0H24.7c-2.3 0-4.4.3-6.6.6a21.9 21.9 0 0 0-11.6 6A20.5 20.5 0 0 0 .6 18c-.3 2.1-.5 4.3-.6 6.5v81.8c0 2.2.3 4.4.6 6.5a21.6 21.6 0 0 0 6 11.6 20.6 20.6 0 0 0 11.5 5.9 44.2 44.2 0 0 0 9.6.6H389.9c2.2 0 4.4-.3 6.6-.6a22.3 22.3 0 0 0 11.5-6 21 21 0 0 0 6-11.5c.3-2.1.5-4.3.5-6.5V24.7c0-2.3-.2-4.4-.6-6.6A21.2 21.2 0 0 0 396.4.6c-2.1-.3-4.3-.5-6.5-.6h-6.6Z"/><path fill="#000" d="M27.7 128.1h-3c-2 0-4-.2-6.1-.5a19.3 19.3 0 0 1-10-5.2 17.4 17.4 0 0 1-5.1-10c-.4-2-.6-4-.6-6.1V24.7c0-2 .2-4 .6-6.1a18.8 18.8 0 0 1 5-10 18.2 18.2 0 0 1 10-5.2c2.1-.3 4.2-.5 6.2-.5H390c2 0 4 .2 6 .5A18.3 18.3 0 0 1 411 18.5a42.5 42.5 0 0 1 .7 9.2v78.6c0 2-.3 4.1-.6 6.1a18.8 18.8 0 0 1-5 10 17.7 17.7 0 0 1-10.1 5.2 41.2 41.2 0 0 1-9.1.5H27.7Z"/><path fill="#fff" d="M81.2 66.5a16.2 16.2 0 0 1 7.7-13.6 16.6 16.6 0 0 0-13-7c-5.6-.7-11 3.2-13.7 3.2-2.9 0-7.2-3.2-11.8-3.1a17.4 17.4 0 0 0-14.7 9c-6.3 10.9-1.6 27 4.5 35.9 3 4.3 6.5 9.1 11.2 9 4.5-.2 6.2-3 11.7-3 5.5 0 7 3 11.8 2.9 4.9-.1 8-4.4 10.9-8.8 2.2-3 3.8-6.5 5-10.1a15.7 15.7 0 0 1-9.6-14.4ZM72.2 40A16 16 0 0 0 76 28.6 16.2 16.2 0 0 0 62.4 39c-.6 2-1 4-.8 5.9a13.4 13.4 0 0 0 10.6-5ZM116.8 48.1V31.4h-6.1v-2.8H126v2.8H120V48h-3ZM140.1 44.2a6 6 0 0 1-6.4 4.2 6.7 6.7 0 0 1-6.8-7.6 6.8 6.8 0 0 1 6.8-7.7c4.1 0 6.6 2.8 6.6 7.5v1H130v.1a4 4 0 0 0 4 4.3 3.5 3.5 0 0 0 3.4-1.8h2.8ZM130 39.4h7.4a3.6 3.6 0 0 0-3.6-3.8 3.8 3.8 0 0 0-3.8 3.8Zm2-8.5 3.5-4.6h3.4l-3.8 4.6h-3ZM144.4 27.6h2.9v20.5h-3V27.6ZM164.5 44.2a6 6 0 0 1-6.4 4.2 6.7 6.7 0 0 1-6.8-7.6 6.8 6.8 0 0 1 6.8-7.7c4.1 0 6.6 2.8 6.6 7.5v1h-10.4v.1a3.9 3.9 0 0 0 4 4.3 3.5 3.5 0 0 0 3.4-1.8h2.8Zm-10.2-4.8h7.4a3.6 3.6 0 0 0-3.6-3.8 3.8 3.8 0 0 0-3.8 3.8Zm2-8.5 3.5-4.6h3.4l-3.8 4.6h-3ZM178.3 38.2a3.3 3.3 0 0 0-3.5-2.5c-2.4 0-4 1.9-4 5 0 3.2 1.6 5.1 4 5.1a3.2 3.2 0 0 0 3.5-2.4h2.8a5.8 5.8 0 0 1-6.3 5 6.8 6.8 0 0 1-7-7.7 6.7 6.7 0 0 1 7-7.6 5.8 5.8 0 0 1 6.3 5.1h-2.8ZM185 27.6h2.9v8.2h.2a4.5 4.5 0 0 1 4.5-2.7 4.9 4.9 0 0 1 5 5.5v9.5h-2.8v-8.8c0-2.3-1.1-3.5-3.2-3.5a3.4 3.4 0 0 0-3.7 3.7v8.6h-3V27.6ZM201.3 44c0-2.7 2-4.2 5.5-4.4l4-.3v-1.2c0-1.6-1-2.5-3-2.5-1.6 0-2.8.6-3 1.7h-2.9c.3-2.6 2.7-4.2 6-4.2 3.7 0 5.8 1.9 5.8 5v10H211v-2h-.2a5 5 0 0 1-4.4 2.3 4.5 4.5 0 0 1-5-4.4Zm9.5-1.3v-1.2l-3.6.2c-2 .2-3 .8-3 2.1 0 1.4 1.2 2.1 2.8 2.1a3.5 3.5 0 0 0 3.8-3.2ZM218.3 33.4h2.8v2.3h.2a4 4 0 0 1 4-2.5h1.3v3a8 8 0 0 0-1.6-.2 3.5 3.5 0 0 0-3.8 3.4v8.7h-3V33.4ZM229.3 49.6h3c.2 1 1.4 1.8 3.4 1.8 2.4 0 3.9-1.2 3.9-3.1v-2.8h-.3a5 5 0 0 1-4.5 2.4c-3.8 0-6.1-2.9-6.1-7.3 0-4.5 2.3-7.4 6.1-7.4a5.1 5.1 0 0 1 4.6 2.6h.3v-2.4h2.8v14.9c0 3.3-2.7 5.5-6.8 5.5-3.7 0-6.1-1.7-6.4-4.2Zm10.3-9c0-3-1.5-4.8-4-4.8s-4 1.9-4 4.8c0 3 1.5 4.8 4 4.8s4-1.9 4-4.8ZM259.6 44.2a6 6 0 0 1-6.4 4.2 6.7 6.7 0 0 1-6.8-7.6 6.8 6.8 0 0 1 6.8-7.7c4 0 6.6 2.8 6.6 7.5v1h-10.5v.1a3.9 3.9 0 0 0 4 4.3 3.5 3.5 0 0 0 3.5-1.8h2.8Zm-10.3-4.8h7.5a3.6 3.6 0 0 0-3.6-3.8 3.8 3.8 0 0 0-3.9 3.8ZM263.7 33.4h2.8v2.3h.2a4 4 0 0 1 4-2.5h1.3v3a8 8 0 0 0-1.7-.2 3.5 3.5 0 0 0-3.7 3.4v8.7h-3V33.4ZM282.5 40.8c0-4.7 2.4-7.6 6-7.6a4.9 4.9 0 0 1 4.6 2.5h.2v-8h3V48h-2.8v-2.3h-.3a5.1 5.1 0 0 1-4.6 2.6c-3.8 0-6.1-3-6.1-7.6Zm3 0c0 3.1 1.4 5 4 5 2.4 0 3.9-2 3.9-5s-1.5-5-4-5c-2.4 0-4 1.9-4 5ZM300.2 44c0-2.7 2-4.2 5.5-4.4l4-.3v-1.2c0-1.6-1-2.5-3-2.5-1.7 0-2.8.6-3.1 1.7h-2.8c.2-2.6 2.6-4.2 6-4.2 3.7 0 5.8 1.9 5.8 5v10h-2.8v-2h-.3a5 5 0 0 1-4.4 2.3 4.5 4.5 0 0 1-5-4.4Zm9.5-1.3v-1.2l-3.6.2c-2 .2-3 .8-3 2.1 0 1.4 1.2 2.1 2.7 2.1a3.5 3.5 0 0 0 3.9-3.2ZM317.1 33.4h2.8v2.3h.2a4.4 4.4 0 0 1 4.5-2.6 4.8 4.8 0 0 1 5 5.5v9.5h-2.9v-8.8c0-2.3-1-3.5-3.1-3.5a3.4 3.4 0 0 0-3.6 3.7v8.6h-2.9V33.4ZM339.6 33.1c3.3 0 5.4 1.6 5.7 4.2h-2.8c-.2-1.1-1.3-1.8-3-1.8-1.6 0-2.8.8-2.8 2 0 .8.7 1.3 2.3 1.7l2.5.6c2.8.6 4.1 1.8 4.1 4 0 2.8-2.6 4.6-6.1 4.6-3.5 0-5.8-1.6-6-4.2h2.9a3 3 0 0 0 3.2 1.9c1.8 0 3-.8 3-2 0-.9-.6-1.5-2-1.8l-2.7-.6c-2.8-.7-4-2-4-4.1 0-2.6 2.3-4.5 5.7-4.5ZM115.3 59.2h6.1v40.6h-6V59.2ZM128.8 74l3.3-14.8h6L134 74h-5.2ZM161 88.8h-15.5l-3.7 11h-6.6L150 59.2h6.9l14.7 40.6h-6.7l-3.8-11Zm-13.9-5h12.3l-6-17.9h-.2l-6 17.9ZM203.2 85c0 9.2-5 15.1-12.4 15.1a10 10 0 0 1-9.3-5.1h-.2v14.6h-6V70.2h5.8v5h.1a10.5 10.5 0 0 1 9.5-5.3c7.5 0 12.5 6 12.5 15.1Zm-6.3 0c0-6-3-10-7.8-10-4.7 0-7.8 4-7.8 10s3.1 10 7.8 10c4.7 0 7.8-4 7.8-10ZM235.8 85c0 9.2-4.9 15.1-12.3 15.1A10 10 0 0 1 214 95h-.1v14.6h-6.1V70.2h5.9v5a10.5 10.5 0 0 1 9.5-5.3c7.6 0 12.5 6 12.5 15.1Zm-6.2 0c0-6-3.1-10-7.9-10-4.6 0-7.8 4-7.8 10s3.2 10 7.8 10c4.8 0 7.9-4 7.9-10ZM257.4 88.5c.5 4 4.4 6.7 9.7 6.7 5.2 0 8.9-2.7 8.9-6.3 0-3.2-2.3-5-7.5-6.3l-5.3-1.3c-7.5-1.8-11-5.3-11-11 0-7 6.2-11.8 14.9-11.8 8.6 0 14.5 4.8 14.7 11.8h-6.2c-.4-4-3.7-6.5-8.6-6.5-5 0-8.3 2.5-8.3 6.1 0 2.9 2.2 4.6 7.4 5.9l4.5 1c8.3 2 11.8 5.4 11.8 11.3 0 7.7-6 12.4-15.7 12.4-9 0-15.1-4.6-15.5-12h6.2ZM295.6 63.2v7h5.6V75h-5.6v16.4c0 2.5 1 3.7 3.6 3.7.6 0 1.3 0 2-.2v4.8c-1.1.2-2.3.3-3.4.3-6 0-8.4-2.2-8.4-8V75h-4.3v-4.8h4.3v-7h6.2ZM304.5 85c0-9.3 5.5-15.2 14-15.2 8.6 0 14.1 5.9 14.1 15.2 0 9.4-5.4 15.2-14 15.2-8.7 0-14.1-5.8-14.1-15.2Zm21.9 0c0-6.4-3-10.2-7.9-10.2-5 0-7.8 3.8-7.8 10.2 0 6.4 2.9 10.2 7.8 10.2 5 0 7.9-3.8 7.9-10.2ZM337.6 70.2h5.8v5h.2a7 7 0 0 1 7.1-5.3c.7 0 1.4 0 2 .2v5.7c-.8-.3-1.7-.4-2.6-.4a6.1 6.1 0 0 0-6.4 6.9v17.5h-6V70.2ZM380.9 91.1c-.9 5.4-6.1 9.1-12.8 9.1-8.6 0-14-5.8-14-15 0-9.3 5.4-15.4 13.7-15.4 8.2 0 13.4 5.7 13.4 14.6v2.1h-21v.4a7.7 7.7 0 0 0 8 8.4 6.7 6.7 0 0 0 6.9-4.2h5.8Zm-20.6-8.8H375a7.1 7.1 0 0 0-7.3-7.5 7.5 7.5 0 0 0-7.5 7.5Z"/></svg>
