<svg xmlns="http://www.w3.org/2000/svg" viewBox="0 0 28 28" fill="none"><path d="M4 6C4 5.44771 4.44772 5 5 5H23C23.5523 5 24 5.44771 24 6C24 6.55229 23.5523 7 23 7H5C4.44772 7 4 6.55229 4 6Z" fill="currentColor" /><path d="M4 13C4 12.4477 4.44772 12 5 12H16C16.5523 12 17 12.4477 17 13C17 13.5523 16.5523 14 16 14H5C4.44772 14 4 13.5523 4 13Z" fill="currentColor" /><path d="M4 20C4 19.4477 4.44772 19 5 19H23C23.5523 19 24 19.4477 24 20C24 20.5523 23.5523 21 23 21H5C4.44772 21 4 20.5523 4 20Z" fill="currentColor" /></svg>